<svg width="13" height="14" viewBox="0 0 13 14" fill="none" xmlns="http://www.w3.org/2000/svg">
<path d="M10.0097 5.51617C9.69519 4.68105 9.23654 3.90761 8.65465 3.23102C7.64766 2.06533 6.32354 1.3125 5.28125 1.3125C5.21927 1.31255 5.15813 1.32677 5.1025 1.35409C5.04687 1.3814 4.99822 1.42108 4.96029 1.47009C4.92236 1.5191 4.89614 1.57614 4.88365 1.63685C4.87115 1.69755 4.87271 1.76031 4.8882 1.82031C5.24037 3.16602 4.51039 4.28498 3.73775 5.46945C3.09766 6.45055 2.4375 7.46389 2.4375 8.625C2.4375 10.865 4.26004 12.6875 6.5 12.6875C8.73996 12.6875 10.5625 10.865 10.5625 8.625C10.5625 7.52559 10.3766 6.47975 10.0097 5.51617ZM7.32088 11.1308C7.05859 11.4101 6.72978 11.4688 6.5 11.4688C6.27021 11.4688 5.94141 11.4101 5.67912 11.1308C5.41684 10.8515 5.28125 10.4084 5.28125 9.84375C5.28125 9.20543 5.5052 8.71945 5.72152 8.24973C5.84721 7.97703 5.97543 7.69951 6.0516 7.40244C6.05969 7.37013 6.0756 7.3403 6.09793 7.31558C6.12026 7.29087 6.14833 7.27202 6.17966 7.26071C6.21099 7.24939 6.24462 7.24596 6.2776 7.25071C6.31057 7.25545 6.34186 7.26824 6.36873 7.28793C6.60096 7.4676 6.80744 7.67828 6.98242 7.91406C7.44377 8.52344 7.71875 9.24504 7.71875 9.84375C7.71875 10.4084 7.58113 10.8535 7.32088 11.1308Z" fill="#FF9800"/>
</svg>
